<?xml version="1.0" encoding="utf-8"?>
<!-- Generator: Adobe Illustrator 15.0.0, SVG Export Plug-In . SVG Version: 6.00 Build 0)  -->
<!DOCTYPE svg PUBLIC "-//W3C//DTD SVG 1.0//EN" "http://www.w3.org/TR/2001/REC-SVG-20010904/DTD/svg10.dtd">
<svg version="1.0" id="Layer_1" xmlns="http://www.w3.org/2000/svg" xmlns:xlink="http://www.w3.org/1999/xlink" x="0px" y="0px"
	 width="109.753px" height="99.815px" viewBox="0 0 109.753 99.815" enable-background="new 0 0 109.753 99.815"
	 xml:space="preserve">
<path fill="none" stroke="#414042" stroke-width="2" stroke-miterlimit="10" d="M109.753,26"/>
<g>
	<path fill="none" stroke="#414042" stroke-width="2" stroke-miterlimit="10" d="M68.477,45.908c-2.735,0-4.951-2.211-4.951-4.941
		c0-2.729,2.215-4.94,4.951-4.94c2.735,0,4.954,2.211,4.954,4.94"/>
	<path fill="none" stroke="#414042" stroke-width="2" stroke-miterlimit="10" d="M81.112,56.091
		c-1.25-13.095-5.505-33.851-10.784-38.007c-0.612-0.095-1.233-0.146-1.862-0.146c-0.631,0-1.251,0.052-1.864,0.146
		c-5.278,4.156-9.533,24.912-10.783,38.007c-0.245,2.561-0.377,4.834-0.377,6.626c0,6.451,1.689,11.187,4.356,14.199h17.333
		c2.667-3.012,4.358-7.748,4.358-14.199C81.491,60.926,81.358,58.652,81.112,56.091z"/>
	<path fill="none" stroke="#414042" stroke-width="2" stroke-miterlimit="10" d="M48.368,81.182
		c0.556,1.419,1.325,1.385,2.123,0.171c1.516-2.306,4.534-5.645,9.306-5.645"/>
	<path fill="none" stroke="#414042" stroke-width="2" stroke-miterlimit="10" d="M55.577,52.05c0,0-1.979,3.247-4.653,6.244
		c-1.502,1.684-3.223,3.286-4.936,4.192c-1.837,0.968-1.747,4.353-0.948,8.13"/>
	<path fill="none" stroke="#414042" stroke-width="2" stroke-miterlimit="10" d="M81.705,52.05c0,0,4.825,7.917,9.591,10.436
		c3.691,1.946-0.403,13.648-2.381,18.696c-0.556,1.419-1.325,1.385-2.124,0.171c-1.515-2.306-4.533-5.645-9.305-5.645"/>
	<line fill="none" stroke="#414042" stroke-width="2" stroke-miterlimit="10" x1="56.101" y1="69.987" x2="81.944" y2="69.987"/>
	<line fill="none" stroke="#414042" stroke-width="2" stroke-miterlimit="10" x1="64.625" y1="54.049" x2="72.438" y2="54.049"/>
</g>
</svg>
